<?xml version="1.0" encoding="UTF-8"?>
<svg width="269.469px" height="98.814px" viewBox="0 0 269.469 98.814" version="1.1" xmlns="http://www.w3.org/2000/svg" xmlns:xlink="http://www.w3.org/1999/xlink">
    <title>Pokemon logo</title>
    <defs>
        <linearGradient x1="64.1593555%" y1="86.16491%" x2="35.1327796%" y2="8.69499544%" id="linearGradient-1">
            <stop stop-color="#0070B6" offset="0%"></stop>
            <stop stop-color="#1D2C5E" offset="100%"></stop>
        </linearGradient>
        <linearGradient x1="39.36489%" y1="65.3383439%" x2="92.1123689%" y2="7.48713376%" id="linearGradient-2">
            <stop stop-color="#0070B6" offset="0%"></stop>
            <stop stop-color="#1D2C5E" offset="100%"></stop>
        </linearGradient>
        <linearGradient x1="50.6749702%" y1="89.4943124%" x2="46.7848544%" y2="8.08876534%" id="linearGradient-3">
            <stop stop-color="#0070B6" offset="0%"></stop>
            <stop stop-color="#1D2C5E" offset="100%"></stop>
        </linearGradient>
        <linearGradient x1="50.3852161%" y1="81.3150565%" x2="48.9293436%" y2="9.51102229%" id="linearGradient-4">
            <stop stop-color="#125D9E" offset="0%"></stop>
            <stop stop-color="#1D2C5E" offset="100%"></stop>
        </linearGradient>
        <linearGradient x1="58.1973843%" y1="-3.40768095%" x2="51.8868285%" y2="37.8502488%" id="linearGradient-5">
            <stop stop-color="#125D9E" offset="0%"></stop>
            <stop stop-color="#1D2C5E" offset="100%"></stop>
        </linearGradient>
        <linearGradient x1="18.9578272%" y1="9.11183062%" x2="45.9781711%" y2="45.826334%" id="linearGradient-6">
            <stop stop-color="#105FA1" offset="0%"></stop>
            <stop stop-color="#1D2C5E" offset="100%"></stop>
        </linearGradient>
        <linearGradient x1="27.7639804%" y1="-5.95869899%" x2="48.3665855%" y2="43.973632%" id="linearGradient-7">
            <stop stop-color="#105FA1" offset="0%"></stop>
            <stop stop-color="#1D2C5E" offset="100%"></stop>
        </linearGradient>
        <linearGradient x1="0.00075334296%" y1="49.996416%" x2="99.9989328%" y2="49.996416%" id="linearGradient-8">
            <stop stop-color="#3C5AA6" offset="0%"></stop>
            <stop stop-color="#2B73B9" offset="93.31%"></stop>
            <stop stop-color="#2A75BB" offset="100%"></stop>
        </linearGradient>
        <linearGradient x1="0.000252123292%" y1="49.9998016%" x2="100.000339%" y2="49.9998016%" id="linearGradient-9">
            <stop stop-color="#3C5AA6" offset="0%"></stop>
            <stop stop-color="#2B73B9" offset="93.31%"></stop>
            <stop stop-color="#2A75BB" offset="100%"></stop>
        </linearGradient>
    </defs>
    <g id="Pokemon-logo" stroke="none" stroke-width="1" fill="none" fill-rule="evenodd">
        <polygon id="polygon16" fill="url(#linearGradient-1)" fill-rule="nonzero" points="0 36.557 12.026 56.858 16.827 52.279 3.738 32.76"></polygon>
        <polygon id="polygon18" fill="#0071B9" fill-rule="nonzero" points="178.558 20.602 178.093 23.278 183.845 21.422 183.128 18.144"></polygon>
        <polygon id="polygon25" fill="url(#linearGradient-2)" fill-rule="nonzero" points="145.044 2.326 126.536 23.55 131.922 22.001 149.543 -1.42108547e-14"></polygon>
        <polygon id="polygon27" fill="#1D2C5E" fill-rule="nonzero" points="244.056 31.345 248.599 28.924 247.301 40.3"></polygon>
        <polygon id="polygon29" fill="#1D2C5E" fill-rule="nonzero" points="215.82 38.64 219.858 39.467 225.012 36.965 220.539 35.296"></polygon>
        <polygon id="polygon36" fill="url(#linearGradient-3)" fill-rule="nonzero" points="76.598 26.561 77.244 39.744 82.88 37.467 81.193 24.096"></polygon>
        <polygon id="polygon43" fill="url(#linearGradient-4)" fill-rule="nonzero" points="220.19 22.627 215.654 25.075 215.82 38.64 220.386 36.3 221.819 29.734"></polygon>
        <polygon id="polygon45" fill="#312370" fill-rule="nonzero" points="219.567 39.505 214.572 83.875 222.557 82.3 224.121 37.112"></polygon>
        <polygon id="polygon47" fill="#21386E" fill-rule="nonzero" points="229.345 86.002 229.487 92.019 244.815 96.904 249.377 94.486 234.337 82.834 219.102 81.496 214.572 83.875"></polygon>
        <polygon id="polygon49" fill="#21386E" fill-rule="nonzero" points="172.483 75.419 176.25 73.39 178.651 77.826 182.201 75.875 182.908 81.723 205.192 85.675 209.645 83.226 178.917 64.503 157.119 68.239 152.867 72.28"></polygon>
        <polygon id="polygon56" fill="url(#linearGradient-5)" fill-rule="nonzero" points="165.387 20.828 160.926 23.283 152.867 72.28 157.381 69.935 165.117 42.424"></polygon>
        <polygon id="polygon58" fill="#1D2C5E" fill-rule="nonzero" points="129.789 27.395 126.235 29.288 126.534 30.473 134.992 25.1 131.296 21.134 126.536 23.55"></polygon>
        <polygon id="polygon60" fill="#21386E" fill-rule="nonzero" points="139.506 85.272 103.166 67.271 107.728 63.822 144.028 82.83"></polygon>
        <polygon id="polygon62" fill="#1D2C5E" fill-rule="nonzero" points="106.581 18.277 101.074 28.72 106.893 26.958 111.092 15.83"></polygon>
        <path d="M56.633,61.419 L51.987,64.608 C51.987,64.608 52.973,69.792 54.244,73.398 C55.522,77.017 58.564,79.924 58.564,79.924 C60.518,81.834 62.913,83.224 65.585,84.004 C70.724,85.483 76.524,84.519 81.503,81.344 C82.805,80.52 84.572,79.201 85.658,78.16 C80.764,81.13 56.633,61.419 56.633,61.419 Z" id="path69" fill="url(#linearGradient-6)" fill-rule="nonzero"></path>
        <polygon id="polygon71" fill="#1D2C5E" fill-rule="nonzero" points="81.496 38.669 85.736 85.445 103.06 82.882 107.695 80.453 86.196 35.865 81.773 37.355 77.244 39.744"></polygon>
        <polygon id="polygon78" fill="url(#linearGradient-7)" fill-rule="nonzero" points="16.55 54.916 35.906 98.814 54.295 92.882 58.785 89.864 20.617 49.929 15.841 52.791 12.026 56.858"></polygon>
        <path d="M208.381,75.627 L208.641,77.782 C210.225,77.604 211.889,77.399 213.313,76.892 C214.973,76.324 218.579,74.718 219.95,73.535 C219.436,73.722 210.987,75.912 208.381,75.627" id="path80" fill="#1D2C5E" fill-rule="nonzero"></path>
        <path d="M143.322,64.418 L144.012,67.888 C147.734,67.334 150.929,65.957 154.07,64.069 C156.041,62.895 158.205,61.124 158.888,60.652 C158.406,60.96 143.322,64.418 143.322,64.418 Z" id="path82" fill="#1D2C5E" fill-rule="nonzero"></path>
        <g id="g84" transform="translate(4.957000, 1.495000)" fill="#FFCB05" fill-rule="nonzero">
            <path d="M35.981,93.157 L34.544,89.964 L16.192,49.005 L15.815,48.165 L14.981,48.55 L14.424,48.806 L11.157,50.41 C10.675,49.602 9.875,48.248 9.319,47.309 L1.932,34.825 L1.24344979e-14,31.566 L3.196,29.541 C6.219,27.613 9.633,25.832 13.347,24.246 C20.742,21.096 28.29,19.43 35.173,19.43 C37.437,19.43 39.628,19.613 41.686,19.971 C45.117,20.362 48.29,21.488 50.911,23.234 C54.817,25.418 57.892,28.806 59.629,32.814 C61.055,36.108 61.333,39.966 60.427,43.968 L59.895,46.319 L61.848,44.903 C63.164,43.948 64.594,43.132 66.098,42.477 C68.698,41.378 71.388,40.817 74.083,40.817 C76.634,40.817 79.046,41.322 81.253,42.315 L82.676,42.953 L82.533,41.4 L81.914,34.689 L81.814,33.625 L80.778,33.894 L77.669,34.7 L77.124,23.273 L99.898,15.997 L99.714,24.878 L101.429,25.318 L106.403,15.786 L121.3,28.998 L121.921,29.551 L122.527,28.981 C124.568,27.063 126.987,25.524 129.716,24.407 L130.856,23.941 L130.075,22.988 L127.389,19.714 L144.492,3.55271368e-15 L153.449,13.365 L139.738,20.735 L136.693,22.373 L140.15,22.446 C146.65,22.583 152.406,25.333 156.355,30.188 L157.783,31.949 L158.703,33.08 L157.175,34.702 L156.156,35.784 L152.73,39.438 L152.093,40.117 L152.782,40.739 L155.993,43.63 L157.235,44.747 L157.501,43.099 L158.733,35.472 L159.048,33.514 L159.058,33.525 L159.382,31.525 L161.221,20.265 L177.639,20.265 L178.409,20.265 L178.539,19.506 L178.86,17.578 L193.645,17.578 L197.227,40.199 L197.46,41.664 L198.66,40.793 C200.111,39.739 201.714,38.872 203.426,38.217 C205.705,37.357 208.051,36.918 210.393,36.918 C213.181,36.918 215.888,37.562 218.229,38.779 C218.291,38.824 218.379,38.882 218.499,38.93 L219.61,39.376 L219.741,38.184 L220.009,35.719 L220.097,34.911 L219.302,34.734 L216.304,34.064 L216.158,22.272 L239.015,27.303 L240.732,35.788 L242.507,35.823 L244.278,28.521 L263.338,33.156 L243.86,91.859 L229.922,87.482 L229.823,82.075 L229.809,81.3 L229.04,81.192 L215.132,79.229 L215.919,72.16 L216.106,70.478 L214.601,71.249 C213.888,71.612 213.198,71.917 212.546,72.157 C210.272,73.017 207.943,73.452 205.624,73.452 C204.953,73.452 204.279,73.415 203.623,73.341 L202.435,73.208 L202.621,74.388 L203.6,80.605 L183.309,77.026 L182.246,67.8 L181.904,64.843 L180.537,67.486 L178.201,71.991 L173.9,64.051 L172.607,61.666 L172.199,64.346 L171.262,70.492 L153.478,67.693 L154.857,59.258 L155.172,57.324 L153.491,58.329 C150.58,60.074 147.237,61.387 143.274,62.344 C141.889,62.682 140.442,62.916 138.969,63.038 L138.135,63.108 L138.135,63.945 L138.135,79.863 L103.112,62.554 L101.796,61.905 L101.797,63.372 L101.821,78.176 L86.162,80.483 L85.504,73.374 L85.326,71.472 L83.961,72.81 C81.892,74.835 79.561,76.405 77.034,77.477 C74.449,78.576 71.782,79.132 69.109,79.132 C66.44,79.132 63.932,78.574 61.654,77.483 C57.434,75.453 54.39,71.77 53.084,67.123 C52.462,64.94 52.293,62.635 52.582,60.269 L52.891,57.749 L51.053,59.499 C49.757,60.729 48.361,61.904 46.901,62.983 L46.406,63.348 L46.562,63.943 L51.837,84.191 L52.769,87.784 L49.237,88.907 L39.305,92.087 L35.981,93.157 L35.981,93.157 Z M40.439,38.801 C39.927,38.801 39.398,38.848 38.865,38.944 L38.189,39.074 L37.191,39.266 L37.492,40.238 L37.688,40.87 L40.528,50.163 L40.812,51.056 L41.234,52.396 L42.284,51.462 L42.981,50.841 C45.734,48.367 46.699,45.855 46.118,42.687 C45.752,40.786 44.28,39.839 43.434,39.443 C42.55,39.017 41.538,38.801 40.439,38.801 L40.439,38.801 L40.439,38.801 Z M116.574,39.106 L114.799,40.834 L110.124,45.377 L109.106,46.366 L110.431,46.878 L115.445,48.813 L116.985,49.406 L116.667,47.788 C116.253,45.698 116.145,43.606 116.339,41.571 L116.574,39.106 L116.574,39.106 Z M136.99,33.939 C135.051,33.939 133.175,34.773 131.842,36.225 C129.82,38.433 129.427,41.69 130.865,44.328 L131.246,45.043 L131.859,46.186 L132.722,45.22 L133.277,44.605 L140.135,36.775 L140.674,36.155 L141.539,35.161 L140.305,34.704 L139.536,34.42 C138.729,34.104 137.865,33.939 136.99,33.939 L136.99,33.939 Z" id="path86"></path>
        </g>
        <path d="M152.438,47.032 C152.372,47.09 152.311,47.164 152.259,47.24 C152.328,47.177 152.395,47.122 152.466,47.064 L152.438,47.032 Z" id="path88" fill="#7D7F68" fill-rule="nonzero"></path>
        <polygon id="polygon90" fill="#7D7F68" fill-rule="nonzero" points="158.351 41.555 161.776 37.901 160.604 39.145 160.638 38.988 159.602 40.081 156.18 43.724 159.386 46.608 159.967 43.016 161.563 44.445"></polygon>
        <polygon id="polygon92" fill="#7D7F68" fill-rule="nonzero" points="158.351 41.555 161.563 44.445 162.793 36.819 161.776 37.901"></polygon>
        <path d="M115.715,47.522 L115.767,47.544 L115.715,47.522 Z" id="path94" fill="#7D7F68" fill-rule="nonzero"></path>
        <path d="M134.677,50.694 C134.951,50.971 134.698,50.772 135.005,50.982 L137.1,49.505 C136.789,49.285 136.481,49.049 136.198,48.785 C133.158,46.015 133.948,39.785 135.92,36.375 C130.729,40.563 130.999,47.01 134.677,50.694" id="path96" fill="#C7A008" fill-rule="nonzero"></path>
        <path d="M159.967,54.182 C156.507,57.044 152.563,58.91 147.352,60.169 C146.213,60.43 145.097,60.62 144.005,60.716 C135.734,61.529 128.795,57.731 126.162,51.571 C125.834,50.825 125.581,50.07 125.39,49.264 C124.172,44.076 125.212,39.44 127.775,35.806 C128.029,35.454 128.296,35.117 128.576,34.774 C128.445,34.886 128.311,34.982 128.202,35.087 C127.217,35.964 126.345,36.925 125.604,37.975 C123.038,41.609 121.998,46.248 123.227,51.428 C123.415,52.234 123.664,53 123.985,53.729 C126.619,59.903 133.56,63.699 141.824,62.892 C142.925,62.786 144.037,62.604 145.177,62.329 C150.394,61.07 154.335,59.212 157.795,56.35 C158.64,55.655 159.455,54.897 160.246,54.068 L160.173,53.998 C160.094,54.066 160.035,54.125 159.967,54.182" id="path98" fill="#C7A008" fill-rule="nonzero"></path>
        <polygon id="polygon100" fill="#C7A008" fill-rule="nonzero" points="101.678 38.499 110.919 25.513 110.544 25.167 101.628 37.691"></polygon>
        <polygon id="polygon102" fill="#C7A008" fill-rule="nonzero" points="162.793 36.819 161.563 44.445 159.967 43.016 159.386 46.608 156.18 43.724 159.602 40.081 160.638 38.988 160.604 39.145 161.776 37.901"></polygon>
        <polygon id="polygon104" fill="#C7A008" fill-rule="nonzero" points="151.374 15.429 154.61 14.041 148.695 6.45 146.757 9.157"></polygon>
        <path d="M61.785,34.235 C46.849,16.04 19.936,25.82 10.263,34.331 L10.641,34.984 C12.865,33.708 15.21,32.554 17.677,31.519 C27.285,27.415 36.445,26.212 43.789,27.497 C46.385,27.795 49.135,28.565 51.528,30.167 C54.841,32.022 57.352,34.661 58.82,38.043 C61.425,44.033 59.13,51.998 52.995,58.666 C60.69,51.605 65.955,44.849 61.785,34.235 Z" id="path106" fill="#C7A008" fill-rule="nonzero"></path>
        <path d="M92.257,55.433 C92.187,55.103 92.117,54.768 92.01,54.445 C91.169,51.42 89.362,49.005 86.993,47.398 C83.159,44.794 77.807,44.259 72.473,46.511 C69.667,47.724 67.227,49.591 65.298,51.821 C66.781,50.545 68.476,49.482 70.307,48.69 C75.629,46.431 80.981,46.965 84.828,49.566 C87.197,51.175 88.989,53.589 89.848,56.61 C89.943,56.934 90.017,57.274 90.091,57.615 C90.319,58.765 90.425,59.928 90.381,61.119 C90.27,64.601 88.979,68.107 86.832,71.101 C86.486,71.575 86.122,72.017 85.745,72.455 C86.967,71.4 88.058,70.233 88.99,68.926 C91.146,65.951 92.434,62.438 92.548,58.935 C92.596,57.766 92.499,56.584 92.257,55.433" id="path108" fill="#C7A008" fill-rule="nonzero"></path>
        <path d="M77.55,50.992 C77.529,51.025 79.717,48.824 79.692,48.824 C76.955,48.72 75.798,51.301 75.703,51.504 C76.265,51.232 76.885,51.055 77.55,50.992" id="path110" fill="#C7A008" fill-rule="nonzero"></path>
        <path d="M82.705,54.147 C82.816,54.518 82.874,54.887 82.874,55.291 C82.874,55.861 82.747,56.408 82.516,56.912 C82.954,56.683 86.119,55.148 84.892,51.896 C84.958,51.996 82.626,54.137 82.705,54.147" id="path112" fill="#C7A008" fill-rule="nonzero"></path>
        <path d="M70.255,55.957 C70.255,54.619 72.546,51.373 73.26,50.29 C69.642,52.59 68.084,55.694 68.084,58.139 C68.084,62.328 71.765,65.697 76.166,65.697 C78.248,65.697 82.061,64.596 84.555,60.56 C83.248,61.42 79.926,63.478 78.183,63.478 C73.783,63.477 70.255,60.169 70.255,55.957" id="path114" fill="#C7A008" fill-rule="nonzero"></path>
        <polygon id="polygon116" fill="#C7A008" fill-rule="nonzero" points="101.227 59.791 101.284 76.746 103.975 76.9 103.443 57.572"></polygon>
        <polygon id="polygon118" fill="#C7A008" fill-rule="nonzero" points="85.781 27.511 85.836 29.017 98.589 25.22 99.534 41.46 101.662 38.478 101.208 22.181"></polygon>
        <polygon id="polygon120" fill="#C7A008" fill-rule="nonzero" points="124.332 33.326 112.353 22.332 110.919 25.513 121.462 35.418"></polygon>
        <path d="M122.511,53.814 L108.447,49.164 L106.398,51.328 L120.409,56.935 C121.998,59.929 124.406,62.494 127.438,64.369 C130.373,66.164 133.727,67.239 137.279,67.58 L137.279,74.5 L139.451,75.584 L140.138,65.188 L122.511,53.814 L122.511,53.814 Z" id="path122" fill="#C7A008" fill-rule="nonzero"></path>
        <path d="M145.095,51.858 C148.549,51.025 150.541,49.223 152.256,47.24 C150.969,48.296 144.517,49.702 143.433,50.069 L141.308,52.332 C142.279,52.418 143.903,52.156 145.095,51.858" id="path124" fill="#C7A008" fill-rule="nonzero"></path>
        <path d="M138.813,27.943 C132.444,28.777 129.125,34.124 128.576,34.775 C130.928,32.788 133.876,31.313 137.196,30.527 C145.077,28.621 152.026,31.024 156.321,36.334 L158.979,34.084 C154.725,28.866 146.692,26.043 138.813,27.943" id="path126" fill="#C7A008" fill-rule="nonzero"></path>
        <path d="M160.174,53.998 C160.942,53.352 162.307,52.699 163.033,51.938 L154.505,44.318 C153.852,45.099 153.26,46.386 152.463,47.063 L160.174,53.998 L160.174,53.998 Z" id="path128" fill="#C7A008" fill-rule="nonzero"></path>
        <path d="M203.938,74.418 C194.991,67.064 195.526,51.295 199.918,46.292 L195.976,21.577 L187.354,22.69 L186.97,24.867 L193.494,24.867 L196.949,47.291 C192.553,52.31 190.429,59.034 191.898,65.19 C193.035,69.947 195.957,73.797 200.163,76.024 C200.586,76.256 201.023,76.458 201.47,76.649 L201.526,76.978 L204.091,77.383 C204.091,77.382 204.358,74.632 203.938,74.418 L203.938,74.418 Z" id="path130" fill="#C7A008" fill-rule="nonzero"></path>
        <polygon id="polygon132" fill="#C7A008" fill-rule="nonzero" points="169.55 25.214 169.179 27.392 179.013 27.392 181.91 43.273 184.092 41.069 181.798 24.304"></polygon>
        <polygon id="polygon134" fill="#C7A008" fill-rule="nonzero" points="186.385 56.044 183.21 64.246 183.996 66.38 188.537 53.889"></polygon>
        <polygon id="polygon136" fill="#C7A008" fill-rule="nonzero" points="176.956 50.878 174.77 53.061 172.427 67.875 174.671 68.732"></polygon>
        <path d="M221.123,46.146 C222.41,47.065 223.508,48.228 224.334,49.611 C224.986,50.672 225.479,51.86 225.794,53.164 C226.865,57.617 225.584,62.433 222.753,66.297 C222.468,66.689 222.154,67.068 221.854,67.44 C223.004,66.451 236.972,56.148 223.325,42.616 C208.315,37.668 202.633,47.461 202.102,48.082 C203.688,46.734 205.518,45.619 207.5,44.861 C212.58,42.937 217.578,43.604 221.123,46.146" id="path138" fill="#C7A008" fill-rule="nonzero"></path>
        <path d="M213.556,47.122 C213.598,47.217 215.711,44.92 215.754,44.92 C213.083,45.03 211.8,46.319 211.932,46.914 C211.772,47.145 211.642,47.374 211.54,47.627 C212.11,47.343 213.164,47.125 213.556,47.122" id="path140" fill="#C7A008" fill-rule="nonzero"></path>
        <path d="M218.578,50.479 C218.674,50.837 218.72,51.212 218.712,51.615 C218.688,52.131 218.554,52.604 218.358,53.045 C218.764,52.862 222.001,51.857 220.765,48.295 C220.797,48.396 218.543,50.481 218.578,50.479" id="path142" fill="#C7A008" fill-rule="nonzero"></path>
        <path d="M211.487,61.789 C214.508,61.918 217.849,60.062 220.245,56.782 C214.097,58.043 207.634,47.805 208.282,46.803 C205.959,48.487 203.903,51.735 203.809,54.005 C203.649,58.214 207.076,61.613 211.487,61.789" id="path144" fill="#C7A008" fill-rule="nonzero"></path>
        <polygon id="polygon146" fill="#C7A008" fill-rule="nonzero" points="245.178 88.464 246.619 89.428 264.207 36.643 251.044 33.601 250.879 36.693 261.497 39.049"></polygon>
        <polygon id="polygon148" fill="#C7A008" fill-rule="nonzero" points="224.291 27.943 224.406 30.891 238.401 33.702 243.789 59.255 245.97 57.057 240.837 31.241"></polygon>
        <polygon id="polygon150" fill="#C7A008" fill-rule="nonzero" points="235.061 57.062 231.208 78.854 233.427 79.573 237.252 54.916"></polygon>
        <polygon id="polygon152" fill="#C7A008" fill-rule="nonzero" points="53.445 86.85 46.899 63.117 44.503 64.793 50.57 87.53"></polygon>
        <path d="M51.746,51.162 C50.236,52.764 46.889,55.877 44.982,57.105 L43.824,53.387 L41.288,45.235 L39.676,39.716 L38.103,41.735 L39.709,47.262 L42.245,55.408 L43.398,59.137 C46.009,57.455 49.807,54.298 51.746,51.162" id="path154" fill="#C7A008" fill-rule="nonzero"></path>
        <path d="M144.498,37.129 C142.432,36.334 139.506,36.573 137.926,38.302 C137.559,38.703 136.845,39.726 136.619,40.183 C138.148,38.967 140.871,38.704 142.656,39.348 L144.498,37.129 L144.498,37.129 Z" id="path156" fill="#7D7F68" fill-rule="nonzero"></path>
        <path d="M49.857,44.493 C49.625,43.273 48.43,42.304 47.844,42.035 C46.796,41.529 44.983,41.45 43.659,41.691 C43.897,42.513 44.17,43.477 44.286,43.872 C44.823,43.947 45.705,44.107 46.168,44.318 C46.749,44.598 47.765,45.258 48.001,46.486 C48.317,48.125 48.234,49.657 47.551,50.901 C49.424,49.063 50.333,47.064 49.857,44.493" id="path158" fill="#7D7F68" fill-rule="nonzero"></path>
        <g id="g160" transform="translate(39.676000, 38.848336)" fill="#3C5AA6" fill-rule="nonzero">
            <g id="g162">
                <path d="M13.461,5.61066363 C12.562,0.786663634 6.254,-1.87233637 0,1.53866363 L1.612,7.05966363 L4.148,15.2186636 L5.305,18.9346636 C9.997,15.9176636 14.713,12.2926636 13.461,5.61066363 Z M7.249,13.0286636 C6.566,10.7996636 5.068,5.98666363 5.068,5.98666363 C5.075,6.00866363 4.773,4.95666363 4.415,3.75266363 C5.741,3.51566363 7.015,3.61166363 8.063,4.11566363 C8.649,4.39466363 9.679,5.04566363 9.904,6.27966363 C10.422,9.05366363 9.487,11.0336636 7.249,13.0286636 L7.249,13.0286636 Z" id="path164"></path>
            </g>
        </g>
        <g id="g166" transform="translate(133.400754, 34.551405)" fill="#3567B0" fill-rule="nonzero">
            <g id="g168">
                <path d="M14.3712457,2.2535953 C10.8752457,-0.953404703 5.44124574,-0.704404703 2.25224574,2.7885953 C-0.955754257,6.2755953 -0.703754257,11.7125953 2.79724574,14.9065953 C3.08224574,15.1815953 3.39024574,15.4065953 3.70024574,15.6275953 L14.9772457,2.8565953 C14.7782457,2.6485953 14.5782457,2.4415953 14.3712457,2.2535953 L14.3712457,2.2535953 Z M3.72324574,11.2365953 C2.62024574,9.2115953 2.84324574,6.6405953 4.49224574,4.8385953 C6.07824574,3.1105953 8.50824574,2.6185953 10.5802457,3.4175953 L3.72324574,11.2365953 L3.72324574,11.2365953 Z" id="path170"></path>
            </g>
        </g>
        <polygon id="polygon172" fill="#1E2D5F" fill-rule="nonzero" points="162.84 35.403 156.595 41.42 162.528 46.748"></polygon>
        <path d="M220.748,48.295 C220.843,48.674 220.892,49.049 220.88,49.448 C220.776,51.834 218.533,53.676 215.859,53.551 C213.187,53.459 211.088,51.431 211.193,49.051 C211.283,46.82 213.271,45.054 215.726,44.941 C215.26,44.836 214.773,44.781 214.265,44.763 C209.792,44.57 206.136,47.738 205.982,51.682 C205.81,55.9 209.191,59.339 213.593,59.53 C218.072,59.709 221.726,56.53 221.904,52.332 C221.956,50.877 221.526,49.482 220.748,48.295" id="path174" fill="#3466AF" fill-rule="nonzero"></path>
        <path d="M85.053,53.112 C85.053,55.508 82.874,57.428 80.205,57.428 C77.529,57.428 75.358,55.507 75.358,53.112 C75.358,50.879 77.268,49.038 79.716,48.824 C79.247,48.739 78.759,48.69 78.255,48.69 C73.783,48.69 70.255,52.007 70.255,55.957 C70.255,60.172 73.784,63.478 78.183,63.478 C82.659,63.478 86.184,60.17 86.184,55.957 C86.184,54.498 85.702,53.123 84.873,51.991 C84.985,52.332 85.053,52.71 85.053,53.112" id="path183" fill="url(#linearGradient-8)" fill-rule="nonzero"></path>
        <g id="g185" transform="translate(3.726000, 0.001000)" fill="url(#linearGradient-9)" fill-rule="nonzero">
            <g id="g187">
                <path d="M244.843,28.911 L242.857,37.096 L241.023,28.033 L216.464,22.627 L216.636,36.283 L220.337,37.113 L220.07,39.576 C220.022,39.557 219.992,39.528 219.966,39.507 C215.378,37.086 209.69,36.838 204.337,38.86 C202.541,39.547 200.874,40.45 199.362,41.548 L195.657,18.16 L179.324,18.16 L178.874,20.849 L161.683,20.849 L159.72,32.872 L158.294,31.111 C154.128,25.993 148.089,23.174 141.399,23.034 L155.995,15.189 L145.817,0 L127.428,21.189 L130.602,25.059 C127.727,26.234 125.215,27.854 123.134,29.811 L107.367,15.822 L101.854,26.388 L102.066,16.234 L77.415,24.109 L78.047,37.353 L82.241,36.265 L82.861,42.977 C78.069,40.825 72.309,40.878 66.967,43.135 C65.384,43.825 63.908,44.673 62.548,45.659 C63.472,41.57 63.253,37.539 61.695,33.944 C59.855,29.696 56.617,26.185 52.647,23.97 C49.864,22.116 46.547,20.961 43.076,20.568 C34.546,19.077 24.303,20.608 14.222,24.903 C10.516,26.484 7.059,28.278 3.941,30.264 L7.10542736e-15,32.763 L2.38,36.782 L9.766,49.265 C9.766,49.265 12.026,53.09 12.041,53.088 L16.035,51.125 L16.592,50.869 L34.945,91.83 L36.715,95.767 L40.813,94.447 L50.743,91.266 L55.095,89.883 L53.947,85.453 L48.673,65.208 C50.19,64.085 51.606,62.894 52.913,61.647 C52.618,64.066 52.773,66.515 53.439,68.859 C54.818,73.767 58.032,77.644 62.492,79.792 C67.309,82.107 73.186,82.113 78.623,79.807 C81.35,78.65 83.775,76.962 85.83,74.953 L86.579,83.016 L103.969,80.455 L103.942,64.862 L140.279,82.821 L140.279,65.432 C141.737,65.31 143.225,65.08 144.721,64.713 C148.723,63.746 152.148,62.42 155.191,60.597 L153.665,69.936 L173.257,73.019 L174.332,65.969 L179.449,75.422 L182.577,69.395 L183.72,79.291 L205.933,83.207 L204.755,75.734 C207.796,76.078 211.001,75.67 214.097,74.502 C214.83,74.231 215.554,73.901 216.247,73.547 L215.362,81.498 L230.146,83.584 L230.256,89.647 L245.672,94.486 L265.743,33.991 L244.843,28.911 L244.843,28.911 Z M158.05,37.901 L159.069,36.818 L157.838,44.445 L154.627,41.553 L158.05,37.901 Z M145.032,6.745 L150.414,14.056 L135.027,21.684 L133.964,20.069 L145.032,6.745 L145.032,6.745 Z M43.143,63.122 L49.282,86.677 L39.346,89.851 L18.957,44.317 C17.848,44.9 15.8,45.878 13.919,46.8 L6.536,34.328 C9.472,32.453 12.692,30.791 16.117,29.344 C25.729,25.256 34.9,24.036 42.235,25.332 C44.83,25.624 47.577,26.389 49.983,27.986 C53.284,29.845 55.809,32.491 57.265,35.861 C60.816,44.067 54.884,55.876 43.143,63.122 Z M88.824,58.93 C88.71,62.437 87.422,65.951 85.266,68.924 C83.215,71.799 80.35,74.172 76.979,75.623 C68.359,79.275 59.739,75.623 57.436,67.439 C55.205,59.526 60.396,50.106 68.748,46.508 C74.082,44.256 79.434,44.79 83.268,47.395 C85.636,49.001 87.442,51.416 88.285,54.442 C88.391,54.763 88.461,55.1 88.532,55.43 C88.773,56.583 88.87,57.765 88.824,58.93 L88.824,58.93 Z M135.725,75.583 L99.67,57.55 L99.734,76.444 L90.407,77.716 L89.757,69.928 C92.637,64.99 93.69,59.171 92.187,53.835 C91.362,50.902 89.838,48.356 87.767,46.316 L86.429,30.437 L82.241,31.523 L82.056,27.508 L97.034,23.048 L97.952,38.496 L108.986,22.993 L119.773,33.266 L104.688,49.158 L118.86,54.764 C120.443,57.764 122.858,60.313 125.888,62.191 C128.817,63.999 132.173,65.068 135.723,65.419 L135.725,75.583 L135.725,75.583 Z M117.004,49.457 L111.989,47.522 L116.664,42.978 C116.464,45.064 116.567,47.245 117.004,49.457 Z M156.241,54.181 C152.781,57.043 148.837,58.909 143.626,60.168 C142.487,60.429 141.371,60.619 140.279,60.715 C132.008,61.528 125.069,57.73 122.436,51.57 C122.108,50.824 121.855,50.069 121.664,49.263 C120.446,44.075 121.486,39.438 124.049,35.805 C124.787,34.745 125.663,33.779 126.647,32.909 C129.061,30.755 132.143,29.189 135.647,28.347 C143.526,26.447 150.465,28.852 154.719,34.072 L139.705,50.053 C140.723,50.245 142.342,49.978 143.537,49.692 C147.113,48.82 149.114,46.922 150.877,44.854 L156.877,50.252 L158.695,51.894 C157.907,52.709 157.079,53.478 156.241,54.181 L156.241,54.181 Z M188.094,75.508 L184.828,53.873 L180.209,65.808 L173.293,50.891 L173.215,50.891 L170.482,68.166 L158.955,66.16 L160.576,56.52 C161.011,56.111 161.439,55.701 161.86,55.268 L165.596,51.421 L161.965,48.169 L165.823,25.212 L177.453,25.212 L180.364,41.104 L183.626,22.687 L191.945,22.687 L195.397,45.125 C191.004,50.129 188.87,56.856 190.338,63.01 C191.473,67.781 194.405,71.623 198.608,73.867 C199.031,74.08 199.469,74.291 199.921,74.473 L200.361,77.382 L188.094,75.508 L188.094,75.508 Z M216.819,68.459 C215.548,69.364 214.149,70.133 212.645,70.688 C209.676,71.819 206.723,72.054 204.092,71.531 C202.258,71.169 200.586,70.454 199.131,69.419 C196.817,67.745 195.113,65.273 194.362,62.169 C193.486,58.44 194.293,54.458 196.299,50.97 C197.299,49.265 198.582,47.663 200.1,46.282 C201.793,44.764 203.756,43.521 205.94,42.681 C211.023,40.785 216.036,41.439 219.565,43.976 C220.863,44.896 221.94,46.067 222.789,47.428 C223.433,48.503 223.933,49.688 224.236,50.982 C225.317,55.46 224.03,60.256 221.205,64.12 C219.995,65.767 218.52,67.247 216.819,68.459 L216.819,68.459 Z M242.774,88.851 L234.25,86.312 L233.507,54.886 L229.22,79.129 L219.921,77.645 L220.587,70.665 C226.659,65.534 229.878,57.44 228.114,50.105 C227.339,46.857 225.669,44.029 223.315,41.879 L224.1,33.647 L220.584,32.711 L220.819,28.316 L236.84,31.536 L242.227,57.082 L247.752,34.179 L259.94,36.872 L242.774,88.851 L242.774,88.851 Z" id="path196"></path>
            </g>
        </g>
        <g id="flowRoot3115" transform="translate(252.618387, 89.140476)" fill="#000000" fill-rule="nonzero">
            <polygon id="path3084" points="0.886229732 2.68987953 0.886229732 0.317427243 0 0.317427243 0 0 2.13208633 0 2.13208633 0.317427243 1.24219279 0.317427243 1.24219279 2.68987953"></polygon>
            <path d="M2.48804939,2.68987953 L2.48804939,0 L3.02382118,0 L3.66050757,1.90456628 C3.71922255,2.08193529 3.7620422,2.21465556 3.78894775,2.30272802 C3.81947954,2.20486941 3.86720307,2.06114079 3.93207138,1.87153934 L4.57609479,0 L5.05499291,0 L5.05499291,2.68987953 L4.711872,2.68987953 L4.711872,0.438527582 L3.93023007,2.68987953 L3.60913902,2.68987953 L2.83116091,0.399995528 L2.83116091,2.68987953 L2.48804939,2.68987953 Z" id="path3086"></path>
        </g>
    </g>
</svg>